<svg xmlns="http://www.w3.org/2000/svg" width="1200" height="800" viewBox="0 0 1200 800" fill="none">
  <rect width="1200" height="800" rx="36" fill="#F5FAF8"/>
  <rect x="80" y="82" width="1040" height="636" rx="30" fill="white"/>
  <rect x="128" y="130" width="944" height="98" rx="20" fill="#16724F"/>
  <rect x="146" y="292" width="324" height="336" rx="24" fill="#EAF6F0"/>
  <rect x="500" y="292" width="252" height="336" rx="24" fill="#F8FBFD"/>
  <rect x="782" y="292" width="242" height="336" rx="24" fill="#EAF6F0"/>
  <rect x="184" y="344" width="250" height="26" rx="13" fill="#16724F"/>
  <rect x="540" y="344" width="170" height="26" rx="13" fill="#14395F"/>
  <rect x="818" y="344" width="170" height="26" rx="13" fill="#16724F"/>
  <circle cx="286" cy="472" r="70" fill="#C6E8D8"/>
  <circle cx="628" cy="472" r="70" fill="#D7E6F2"/>
  <circle cx="904" cy="472" r="70" fill="#C6E8D8"/>
  <rect x="184" y="588" width="250" height="16" rx="8" fill="#7A8FA4"/>
  <rect x="540" y="588" width="170" height="16" rx="8" fill="#7A8FA4"/>
  <rect x="818" y="588" width="170" height="16" rx="8" fill="#7A8FA4"/>
</svg>
