<svg xmlns="http://www.w3.org/2000/svg" width="1200" height="800" viewBox="0 0 1200 800" fill="none">
  <rect width="1200" height="800" rx="36" fill="#F7F8FC"/>
  <rect x="86" y="86" width="1028" height="628" rx="30" fill="white"/>
  <rect x="132" y="132" width="936" height="116" rx="22" fill="#102237"/>
  <rect x="132" y="292" width="280" height="118" rx="20" fill="#EAF1F8"/>
  <rect x="458" y="292" width="280" height="118" rx="20" fill="#EAF1F8"/>
  <rect x="784" y="292" width="280" height="118" rx="20" fill="#EAF1F8"/>
  <rect x="132" y="444" width="280" height="198" rx="20" fill="#F3F7FB"/>
  <rect x="458" y="444" width="280" height="198" rx="20" fill="#F3F7FB"/>
  <rect x="784" y="444" width="280" height="198" rx="20" fill="#F3F7FB"/>
  <rect x="170" y="330" width="204" height="22" rx="11" fill="#14395F"/>
  <rect x="496" y="330" width="204" height="22" rx="11" fill="#14395F"/>
  <rect x="822" y="330" width="204" height="22" rx="11" fill="#14395F"/>
  <rect x="170" y="492" width="160" height="18" rx="9" fill="#F26419"/>
  <rect x="496" y="492" width="160" height="18" rx="9" fill="#F26419"/>
  <rect x="822" y="492" width="160" height="18" rx="9" fill="#F26419"/>
</svg>
