<svg xmlns="http://www.w3.org/2000/svg" width="1600" height="1100" viewBox="0 0 1600 1100" fill="none">
  <rect width="1600" height="1100" rx="42" fill="#0F2744"/>
  <rect x="78" y="78" width="1444" height="944" rx="34" fill="url(#paint0_linear)"/>
  <circle cx="1268" cy="246" r="166" fill="#F26419" fill-opacity="0.22"/>
  <circle cx="302" cy="878" r="198" fill="#2E9B6D" fill-opacity="0.18"/>
  <rect x="162" y="210" width="562" height="520" rx="34" fill="white" fill-opacity="0.96"/>
  <rect x="876" y="226" width="518" height="358" rx="32" fill="#F7FAFC"/>
  <rect x="926" y="278" width="188" height="22" rx="11" fill="#C9D8E7"/>
  <rect x="926" y="326" width="332" height="28" rx="14" fill="#14395F"/>
  <rect x="926" y="378" width="264" height="18" rx="9" fill="#9CB1C5"/>
  <rect x="926" y="430" width="210" height="18" rx="9" fill="#9CB1C5"/>
  <rect x="926" y="498" width="178" height="58" rx="18" fill="#F26419"/>
  <rect x="246" y="300" width="224" height="24" rx="12" fill="#D4E0EC"/>
  <rect x="246" y="354" width="360" height="42" rx="21" fill="#102237"/>
  <rect x="246" y="428" width="296" height="18" rx="9" fill="#7A8FA4"/>
  <rect x="246" y="468" width="252" height="18" rx="9" fill="#7A8FA4"/>
  <rect x="246" y="532" width="218" height="58" rx="18" fill="#F26419"/>
  <rect x="246" y="622" width="302" height="18" rx="9" fill="#7A8FA4"/>
  <rect x="862" y="646" width="554" height="222" rx="30" fill="white" fill-opacity="0.94"/>
  <rect x="912" y="704" width="236" height="18" rx="9" fill="#CED9E4"/>
  <rect x="912" y="746" width="382" height="26" rx="13" fill="#163C62"/>
  <rect x="912" y="796" width="438" height="18" rx="9" fill="#7A8FA4"/>
  <defs>
    <linearGradient id="paint0_linear" x1="170" y1="120" x2="1430" y2="980" gradientUnits="userSpaceOnUse">
      <stop stop-color="#EAF1F8"/>
      <stop offset="1" stop-color="#DCE8F3"/>
    </linearGradient>
  </defs>
</svg>
