<svg xmlns="http://www.w3.org/2000/svg" width="1200" height="800" viewBox="0 0 1200 800" fill="none">
  <rect width="1200" height="800" rx="36" fill="#EEF4FA"/>
  <rect x="84" y="84" width="1032" height="632" rx="30" fill="white"/>
  <rect x="126" y="126" width="948" height="130" rx="22" fill="#163C62"/>
  <rect x="126" y="294" width="430" height="376" rx="24" fill="#EAF1F8"/>
  <rect x="602" y="294" width="472" height="376" rx="24" fill="#F6FAFD"/>
  <path d="M736 470C736 402.562 790.562 348 858 348H924C991.438 348 1046 402.562 1046 470V592H736V470Z" fill="#C9D8E7"/>
  <rect x="768" y="394" width="246" height="24" rx="12" fill="#14395F"/>
  <rect x="190" y="350" width="300" height="28" rx="14" fill="#14395F"/>
  <rect x="190" y="404" width="252" height="18" rx="9" fill="#7A8FA4"/>
  <rect x="190" y="444" width="214" height="18" rx="9" fill="#7A8FA4"/>
  <rect x="190" y="504" width="168" height="18" rx="9" fill="#F26419"/>
</svg>
