<svg xmlns="http://www.w3.org/2000/svg" width="1200" height="800" viewBox="0 0 1200 800" fill="none">
  <rect width="1200" height="800" rx="36" fill="#F3F7FB"/>
  <rect x="68" y="72" width="1064" height="656" rx="28" fill="white"/>
  <rect x="114" y="116" width="972" height="134" rx="20" fill="#183B60"/>
  <rect x="114" y="278" width="290" height="352" rx="22" fill="#E6EEF7"/>
  <rect x="434" y="278" width="290" height="352" rx="22" fill="#EFF5FA"/>
  <rect x="754" y="278" width="332" height="352" rx="22" fill="#E6EEF7"/>
  <rect x="152" y="318" width="212" height="28" rx="14" fill="#14395F"/>
  <rect x="470" y="318" width="220" height="28" rx="14" fill="#14395F"/>
  <rect x="794" y="318" width="244" height="28" rx="14" fill="#14395F"/>
  <rect x="166" y="388" width="182" height="150" rx="18" fill="#C9D8E7"/>
  <rect x="486" y="388" width="154" height="150" rx="18" fill="#F2B754"/>
  <rect x="810" y="388" width="208" height="150" rx="18" fill="#C9D8E7"/>
  <rect x="470" y="576" width="220" height="18" rx="9" fill="#7A8FA4"/>
  <rect x="152" y="576" width="212" height="18" rx="9" fill="#7A8FA4"/>
  <rect x="794" y="576" width="244" height="18" rx="9" fill="#7A8FA4"/>
</svg>
